<svg width="311.570312" height="464.259949" viewBox="0 0 311.57 464.26" fill="none" xmlns="http://www.w3.org/2000/svg" xmlns:xlink="http://www.w3.org/1999/xlink">
	<desc>
			Created with Pixso.
	</desc>
	<defs/>
	<path id="Vector" d="M187.82 352.06C186.63 352.07 185.45 351.93 184.29 351.65C158.74 345.41 157.17 317.77 155.28 282.78C154.58 270.27 153.83 257.35 151.97 243.94C149.97 229.59 152.75 218.89 160.26 212.14C174.99 198.93 202.18 205.56 203.32 205.85C203.54 205.91 203.73 206.03 203.89 206.19C204.05 206.35 204.16 206.55 204.21 206.77L219.49 276.95L277.25 211.22C277.46 210.98 277.77 210.83 278.09 210.81C278.41 210.79 278.72 210.9 278.96 211.1L303.14 232.49C303.36 232.68 303.5 232.95 303.54 233.24C303.57 233.53 303.5 233.82 303.33 234.06C299.8 239.12 223.53 352.04 187.82 352.06ZM186.42 206.4C178.13 206.4 168.41 207.95 161.76 213.95C155.11 219.96 152.36 230.12 154.24 243.6C156.13 257.08 156.85 270.07 157.58 282.63C159.51 316.64 161.06 343.47 184.85 349.31C198.07 352.5 222.32 333.5 254.96 294.27C277.49 267.19 296.93 238.95 300.53 233.77L278.12 213.88L219.59 280.5C219.44 280.67 219.25 280.8 219.04 280.87C218.83 280.94 218.6 280.95 218.38 280.89C218.16 280.84 217.96 280.72 217.8 280.56C217.65 280.4 217.54 280.19 217.49 279.97L201.87 208.15C196.79 207.04 191.62 206.45 186.42 206.4Z" fill="#3C4242" fill-opacity="1.000000" fill-rule="nonzero"/>
	<path id="Vector" d="M9.29 421.32C4.46 454.04 5.2 463.05 5.2 463.05L205.66 459.03L179.29 344.34L25.58 360.82C18.01 380.35 12.54 400.63 9.29 421.32Z" fill="#3C4242" fill-opacity="1.000000" fill-rule="nonzero"/>
	<path id="Vector" d="M5.2 464.26C4.9 464.26 4.61 464.15 4.38 463.95C4.16 463.75 4.02 463.47 4 463.17C4 462.78 3.22 453.63 8.08 421.15C11.37 400.37 16.87 379.99 24.47 360.36C24.56 360.16 24.69 359.99 24.87 359.86C25.04 359.72 25.25 359.64 25.46 359.61L179.14 343.13C179.44 343.1 179.73 343.17 179.97 343.34C180.22 343.51 180.39 343.77 180.45 344.05L206.85 458.76C206.89 458.94 206.89 459.12 206.85 459.3C206.8 459.47 206.72 459.64 206.61 459.78C206.5 459.92 206.36 460.04 206.2 460.12C206.04 460.2 205.87 460.24 205.69 460.24L5.23 464.26L5.2 464.26ZM10.47 421.52C6.58 447.51 6.32 458.54 6.36 461.81L204.14 457.87L178.35 345.65L26.45 361.94C19.07 381.19 13.71 401.16 10.47 421.52Z" fill="#3C4242" fill-opacity="1.000000" fill-rule="nonzero"/>
	<path id="Vector" d="M7.19 409.05L195.15 387.88C177.64 276.05 168.72 335.17 189.88 230.58L212.17 224.53C201.82 170.49 176.39 146.78 176.39 146.78C151.56 102.03 91.02 128.21 91.02 128.21C91.02 128.21 21.59 133.78 3.68 193.84C-8.19 233.58 12.19 289 14.73 337.37C15.43 350.9 10.76 350.35 7.19 409.05Z" fill="#8A33FD" fill-opacity="1.000000" fill-rule="nonzero"/>
	<path id="Vector" d="M142.81 156.89C135.82 155.83 129.1 154.64 121.87 156.58C111.14 159.5 101.69 165.72 90.64 168.31C78.84 171.05 65.98 171.14 53.92 171.7C50.39 171.87 54.21 176.35 51.16 174.53C40.45 168.14 39.6 153.6 38.61 142.69C35.98 117.47 36.79 92.01 41.03 67.01C45.09 45.23 49.3 24.59 70.4 13.46C85.78 5.35 107.39 0.51 124.24 6.51C141.09 12.51 155.16 27.93 161.03 44.99C167.54 63.87 169.67 83.01 180.59 100.29C185.43 107.91 191.4 115.34 192.68 124.27C194.08 135.04 187.7 145.88 178.54 151.69C169.38 157.5 157.94 158.95 147.11 157.5C145.61 157.33 144.21 157.11 142.81 156.89Z" fill="#FFFFFF" fill-opacity="1.000000" fill-rule="nonzero"/>
	<path id="Vector" d="M52.18 176.18C51.59 176.12 51.02 175.91 50.53 175.57C39.73 169.14 38.44 155.27 37.53 144.11L37.53 142.78C34.96 114.15 35.76 89.3 39.94 66.77C43.86 45.74 47.92 23.98 69.94 12.37C83.8 5.11 106.47 -1.16 124.75 5.35C141.67 11.38 156.01 26.4 162.27 44.58C164.4 50.73 166.06 56.97 167.68 63.02C171.17 75.92 174.43 88.09 181.71 99.61C182.58 101.01 183.49 102.39 184.41 103.77C188.57 110.04 192.87 116.53 193.84 124.1C195.24 134.75 189.35 146.24 179.17 152.68C168.29 159.58 155.67 159.75 147.02 158.68L142.69 158.05L141.65 157.91C135.1 156.89 128.88 155.95 122.31 157.74C117.34 159.22 112.49 161.07 107.8 163.28C102.37 165.86 96.7 167.93 90.88 169.45C80.6 171.49 70.15 172.56 59.67 172.65L53.92 172.89C53.77 172.85 53.61 172.85 53.46 172.89C53.41 173.17 53.41 173.45 53.46 173.73C53.58 174.1 53.59 174.49 53.48 174.86C53.38 175.23 53.17 175.57 52.88 175.82C52.68 176 52.44 176.12 52.18 176.18ZM107.61 5.08C94.83 5.37 82.3 8.62 70.98 14.57C50 25.63 46.06 46.78 42.24 67.25C38.08 89.57 37.41 114.2 39.82 142.61L39.94 143.94C40.86 154.28 41.97 167.08 51.09 172.98C51.09 172.4 51.28 171.84 51.64 171.39C51.92 171.07 52.26 170.82 52.65 170.66C53.03 170.49 53.45 170.41 53.87 170.42L59.62 170.18C69.94 170.15 80.24 169.16 90.37 167.22C96.01 165.72 101.5 163.7 106.76 161.17C111.55 158.92 116.49 157.03 121.56 155.51C128.67 153.6 135.12 154.59 141.94 155.51L142.98 155.68C144.38 155.87 145.78 156.09 147.21 156.26C155.5 157.3 167.52 157.16 177.79 150.62C187.17 144.69 192.63 134.14 191.35 124.41C190.43 117.4 186.3 111.15 182.31 105.05C181.39 103.65 180.45 102.25 179.55 100.84C172.08 89.01 168.63 76.06 165.27 63.58C163.65 57.57 161.98 51.48 159.9 45.28C153.86 27.78 140.05 13.34 123.83 7.55C118.6 5.82 113.12 4.98 107.61 5.08Z" fill="#3C4242" fill-opacity="1.000000" fill-rule="nonzero"/>
	<path id="Vector" d="M150.96 56.34C150.96 56.34 163.43 85.38 159.71 108.13C158.83 114.5 156.11 120.48 151.89 125.33C147.67 130.19 142.13 133.7 135.94 135.45L138.36 175.31C138.36 175.31 139.83 195.68 114.67 194.11C107.39 193.64 100.35 191.32 94.21 187.37C88.07 183.42 83.04 177.97 79.59 171.53L72.12 98.42C72.12 98.42 99.37 80.35 95.26 54.19C95.42 54.19 130.07 68.34 150.96 56.34Z" fill="#FFFFFF" fill-opacity="1.000000" fill-rule="nonzero"/>
	<path id="Vector" d="M117.55 195.39L114.77 195.39C107.27 194.87 100.03 192.45 93.72 188.37C87.41 184.3 82.23 178.68 78.67 172.06C78.65 171.93 78.65 171.79 78.67 171.65L71.2 98.54C71.19 98.32 71.23 98.1 71.33 97.9C71.43 97.7 71.58 97.53 71.76 97.41C72 97.24 98.35 79.45 94.34 54.38C94.31 54.17 94.34 53.95 94.42 53.75C94.5 53.56 94.63 53.38 94.8 53.25C94.97 53.12 95.17 53.03 95.38 53C95.59 52.97 95.81 53 96.01 53.07C96.34 53.07 130.34 66.84 150.47 55.27C150.63 55.21 150.8 55.17 150.97 55.17C151.14 55.17 151.31 55.21 151.46 55.27C151.78 55.4 152.04 55.64 152.19 55.95C152.7 57.14 164.76 85.5 161.01 108.42C160.1 114.84 157.4 120.87 153.23 125.83C149.05 130.78 143.56 134.46 137.39 136.44L139.81 175.33C139.91 177.94 139.49 180.55 138.59 183C137.68 185.45 136.29 187.69 134.52 189.61C130.58 193.43 124.9 195.39 117.55 195.39ZM80.95 171.19C84.33 177.39 89.22 182.63 95.16 186.43C101.1 190.24 107.9 192.49 114.94 192.97C122.89 193.48 128.86 191.76 132.7 187.92C135.79 184.51 137.45 180.05 137.32 175.45L134.9 135.59C134.89 135.31 134.98 135.03 135.15 134.8C135.32 134.57 135.57 134.4 135.85 134.34C141.82 132.68 147.16 129.3 151.22 124.62C155.27 119.94 157.86 114.16 158.64 108.01C161.84 88.4 152.75 63.84 150.47 58.11C131.88 67.79 104.54 58.86 97 56.12C99.41 79.45 77.66 96.22 73.69 99.08L80.95 171.19Z" fill="#3C4242" fill-opacity="1.000000" fill-rule="nonzero"/>
	<path id="Vector" d="M137.49 110.33C135.46 110.31 133.43 110.13 131.42 109.77C131.27 109.74 131.12 109.68 130.99 109.59C130.86 109.5 130.74 109.39 130.66 109.26C130.57 109.12 130.51 108.97 130.48 108.82C130.45 108.66 130.45 108.5 130.48 108.35C130.51 108.19 130.57 108.04 130.66 107.91C130.75 107.77 130.86 107.66 130.99 107.57C131.13 107.48 131.28 107.42 131.43 107.39C131.59 107.36 131.75 107.37 131.91 107.4C131.91 107.4 139.96 108.95 143.75 106.68C144.33 103.53 136.72 93.08 131.16 86.61C130.95 86.37 130.84 86.05 130.86 85.73C130.89 85.41 131.03 85.11 131.28 84.9C131.52 84.68 131.84 84.58 132.16 84.6C132.48 84.62 132.78 84.77 133 85.02C135.41 87.78 147.06 101.74 146.24 106.8C146.2 107.19 146.06 107.56 145.85 107.9C145.63 108.23 145.35 108.51 145.01 108.71C142.69 109.89 140.1 110.45 137.49 110.33Z" fill="#3C4242" fill-opacity="1.000000" fill-rule="nonzero"/>
	<path id="Vector" d="M128.69 123.35C127.22 123.35 125.76 123.22 124.32 122.96C117.47 121.75 111.28 118.1 106.89 112.7C106.74 112.42 106.71 112.09 106.81 111.79C106.9 111.48 107.11 111.23 107.39 111.08C107.68 110.93 108.01 110.9 108.31 110.99C108.62 111.08 108.88 111.29 109.04 111.56C113.11 116.33 118.7 119.53 124.87 120.62C133.04 121.95 141.17 118.95 149.05 111.69C149.16 111.56 149.3 111.47 149.45 111.4C149.6 111.34 149.77 111.3 149.93 111.3C150.1 111.3 150.26 111.34 150.41 111.4C150.56 111.47 150.7 111.57 150.81 111.69C150.93 111.81 151.01 111.95 151.07 112.11C151.12 112.26 151.15 112.43 151.14 112.6C151.12 112.76 151.08 112.92 151 113.07C150.92 113.22 150.82 113.35 150.69 113.45C143.53 120.03 136.19 123.35 128.69 123.35Z" fill="#3C4242" fill-opacity="1.000000" fill-rule="nonzero"/>
	<path id="Vector" d="M135.94 135.45C135.94 135.45 114.86 139.49 102.44 137.14C102.44 137.14 117.77 167.68 137.97 166.18L135.94 135.45Z" fill="#3C4242" fill-opacity="1.000000" fill-rule="nonzero"/>
	<path id="Vector" d="M136.6 167.49C116.6 167.49 102.03 138.93 101.4 137.68C101.3 137.47 101.26 137.25 101.29 137.03C101.31 136.81 101.39 136.6 101.52 136.42C101.65 136.23 101.83 136.09 102.04 136.01C102.25 135.93 102.48 135.91 102.7 135.96C114.79 138.23 135.56 134.31 135.77 134.26C135.94 134.23 136.12 134.24 136.28 134.28C136.45 134.32 136.61 134.4 136.74 134.5C136.88 134.61 136.98 134.74 137.06 134.89C137.14 135.04 137.19 135.21 137.2 135.38L139.23 166.14C139.25 166.29 139.23 166.45 139.18 166.61C139.13 166.76 139.05 166.9 138.95 167.02C138.84 167.14 138.72 167.24 138.58 167.31C138.43 167.39 138.28 167.43 138.12 167.44L136.6 167.49ZM104.73 138.69C108.51 145.3 121.1 165.07 136.62 165.07L134.76 136.88C130.34 137.68 115.49 140 104.73 138.69Z" fill="#3C4242" fill-opacity="1.000000" fill-rule="nonzero"/>
	<path id="Vector" d="M257.96 136.85L310.34 134.29L284.09 245.46L227.76 251L257.96 136.85Z" fill="#3C4242" fill-opacity="1.000000" fill-rule="nonzero"/>
	<path id="Vector" d="M227.81 252.21C227.64 252.22 227.46 252.18 227.3 252.11C227.14 252.04 227 251.94 226.89 251.8C226.76 251.65 226.67 251.47 226.62 251.28C226.58 251.09 226.58 250.88 226.62 250.69L256.82 136.56C256.88 136.31 257.02 136.09 257.22 135.93C257.43 135.77 257.67 135.67 257.93 135.67L310.29 133.08C310.48 133.06 310.67 133.09 310.85 133.17C311.02 133.25 311.17 133.36 311.29 133.51C311.41 133.66 311.49 133.83 311.54 134.02C311.58 134.2 311.57 134.39 311.53 134.58L285.3 245.75C285.24 246 285.1 246.22 284.91 246.38C284.72 246.55 284.48 246.65 284.23 246.67L227.81 252.21ZM258.95 138.04L229.4 249.63L283.17 244.35L308.84 135.57L258.95 138.04Z" fill="#3C4242" fill-opacity="1.000000" fill-rule="nonzero"/>
	<path id="Vector" d="M189.88 231.81C189.57 231.81 189.27 231.7 189.05 231.49C188.82 231.27 188.69 230.98 188.67 230.68C187.62 214.66 184.08 198.9 178.18 183.97C178.05 183.68 178.04 183.35 178.15 183.05C178.26 182.75 178.49 182.51 178.78 182.37C178.93 182.31 179.08 182.27 179.24 182.26C179.4 182.25 179.56 182.28 179.71 182.34C179.86 182.39 179.99 182.48 180.11 182.59C180.22 182.7 180.31 182.83 180.38 182.98C186.4 198.17 190.02 214.2 191.09 230.51C191.11 230.83 191 231.15 190.79 231.39C190.57 231.64 190.27 231.79 189.95 231.81L189.88 231.81Z" fill="#3C4242" fill-opacity="1.000000" fill-rule="nonzero"/>
	<path id="Vector" d="M112.71 101.01C109.5 101.03 106.35 100.13 103.63 98.43C100.91 96.72 98.73 94.27 97.34 91.37C95.96 88.47 95.43 85.23 95.82 82.04C96.2 78.85 97.49 75.84 99.52 73.35C101.55 70.86 104.25 69 107.3 67.99C110.35 66.98 113.62 66.86 116.73 67.64C119.85 68.42 122.68 70.08 124.89 72.41C127.1 74.74 128.6 77.65 129.22 80.81C130.09 85.18 129.2 89.71 126.75 93.43C124.29 97.15 120.47 99.75 116.12 100.67C115 100.89 113.85 101.01 112.71 101.01ZM112.71 69.77C111.74 69.76 110.78 69.86 109.83 70.06C107 70.61 104.4 71.98 102.35 74.01C100.31 76.04 98.91 78.64 98.35 81.47C97.78 84.3 98.07 87.23 99.18 89.89C100.28 92.56 102.15 94.83 104.56 96.42C106.96 98.02 109.78 98.86 112.66 98.84C115.54 98.82 118.35 97.95 120.73 96.32C123.12 94.7 124.96 92.4 126.03 89.72C127.11 87.05 127.36 84.11 126.76 81.29C126.07 78.06 124.31 75.16 121.77 73.07C119.22 70.97 116.03 69.81 112.73 69.77L112.71 69.77Z" fill="#3C4242" fill-opacity="1.000000" fill-rule="nonzero"/>
	<path id="Vector" d="M148.37 93.7C145.35 93.67 142.39 92.82 139.8 91.25C137.22 89.68 135.1 87.45 133.67 84.79C132.24 82.12 131.55 79.12 131.67 76.1C131.78 73.07 132.71 70.14 134.35 67.59C136.2 64.83 138.82 62.67 141.89 61.39C144.96 60.11 148.34 59.76 151.6 60.39C154.87 61.02 157.88 62.6 160.25 64.93C162.62 67.26 164.26 70.24 164.95 73.5C165.82 77.87 164.93 82.4 162.48 86.12C160.02 89.84 156.21 92.44 151.85 93.37C150.7 93.59 149.54 93.7 148.37 93.7ZM148.37 62.46C147.39 62.46 146.42 62.56 145.47 62.75C142.64 63.3 140.03 64.67 137.99 66.7C135.94 68.74 134.55 71.33 133.98 74.16C133.42 76.99 133.7 79.92 134.81 82.58C135.92 85.25 137.79 87.52 140.19 89.11C142.59 90.71 145.41 91.55 148.3 91.53C151.18 91.51 153.99 90.64 156.37 89.01C158.75 87.39 160.6 85.09 161.67 82.42C162.74 79.74 162.99 76.8 162.39 73.98C161.71 70.76 159.95 67.86 157.41 65.76C154.87 63.67 151.69 62.51 148.39 62.46L148.37 62.46Z" fill="#3C4242" fill-opacity="1.000000" fill-rule="nonzero"/>
	<path id="Vector" d="M107.68 84.7C107.56 84.73 107.44 84.73 107.32 84.7C107.02 84.61 106.76 84.4 106.61 84.12C106.47 83.83 106.43 83.51 106.52 83.2C107.51 80.08 109.68 77.47 112.57 75.94C114.02 75.37 115.58 75.14 117.14 75.25C118.69 75.36 120.2 75.82 121.56 76.59C121.83 76.75 122.02 76.99 122.12 77.28C122.21 77.58 122.18 77.89 122.05 78.17C121.92 78.44 121.69 78.66 121.41 78.77C121.12 78.88 120.81 78.88 120.52 78.77C119.47 78.17 118.3 77.8 117.1 77.69C115.89 77.59 114.67 77.75 113.53 78.17C111.31 79.37 109.64 81.38 108.84 83.78C108.78 84.04 108.63 84.27 108.42 84.44C108.21 84.61 107.95 84.7 107.68 84.7Z" fill="#3C4242" fill-opacity="1.000000" fill-rule="nonzero"/>
	<path id="Vector" d="M141.17 77.54L140.95 77.54C140.63 77.47 140.36 77.29 140.17 77.02C139.99 76.76 139.92 76.43 139.98 76.11C140.17 75.12 140.59 74.18 141.2 73.37C141.81 72.57 142.6 71.91 143.51 71.46C145.64 70.62 148.35 71.3 151.22 73.45C151.45 73.65 151.6 73.92 151.64 74.22C151.67 74.52 151.6 74.83 151.42 75.07C151.24 75.32 150.98 75.49 150.69 75.55C150.39 75.61 150.08 75.56 149.82 75.41C147.57 73.79 145.71 73.21 144.43 73.69C143.9 73.99 143.44 74.41 143.09 74.9C142.73 75.4 142.49 75.97 142.38 76.57C142.31 76.85 142.16 77.09 141.94 77.27C141.72 77.44 141.45 77.54 141.17 77.54Z" fill="#3C4242" fill-opacity="1.000000" fill-rule="nonzero"/>
	<path id="Vector" d="M37.24 105.25C37.24 105.25 40.19 114.11 30.83 139.76C21.47 165.41 21.86 185.06 45.33 188.59C68.81 192.13 82.54 189.29 85.63 169.23C88.73 149.17 70.67 127.15 70.67 127.15L37.24 105.25Z" fill="#FFFFFF" fill-opacity="1.000000" fill-rule="nonzero"/>
	<path id="Vector" d="M59.98 191.09C55.02 191.02 50.06 190.59 45.16 189.78C36.56 188.5 30.47 184.94 27.11 179.28C22.13 170.85 22.97 157.79 29.69 139.32C38.71 114.61 36.12 105.71 36.1 105.64C36.05 105.48 36.03 105.31 36.04 105.14C36.06 104.98 36.1 104.81 36.18 104.67C36.26 104.52 36.36 104.39 36.49 104.28C36.62 104.17 36.76 104.09 36.92 104.04C37.08 103.99 37.25 103.97 37.41 103.98C37.58 104 37.74 104.04 37.89 104.12C38.04 104.2 38.17 104.3 38.28 104.43C38.38 104.55 38.47 104.7 38.52 104.86C38.52 105.25 41.49 114.54 32.09 140.17C25.63 157.91 24.83 170.3 29.31 178.04C32.33 183.15 37.67 186.2 45.65 187.38C67.96 190.75 81.5 188.83 84.57 169.11C87.54 149.92 70.06 128.12 69.87 127.97C69.77 127.85 69.69 127.71 69.65 127.56C69.6 127.41 69.58 127.25 69.6 127.09C69.61 126.93 69.66 126.78 69.74 126.64C69.81 126.5 69.92 126.38 70.04 126.28C70.29 126.08 70.6 125.98 70.92 126.01C71.24 126.05 71.53 126.2 71.73 126.45C72.48 127.37 90.11 149.29 86.94 169.57C84.28 185.93 74.51 191.09 59.98 191.09Z" fill="#3C4242" fill-opacity="1.000000" fill-rule="nonzero"/>
	<path id="Vector" d="M289.84 251C309.18 223.54 309.18 223.54 308.09 214.08C307.25 206.82 303.62 200.45 299.82 194.45C294.99 186.8 284.43 175.09 280.48 190.7C278.53 198.2 275.51 207.42 277.58 215.12C279.52 222.23 284.84 228.06 287.76 234.74L289.84 251Z" fill="#FFFFFF" fill-opacity="1.000000" fill-rule="nonzero"/>
	<path id="Vector" d="M289.84 252.21C289.59 252.21 289.35 252.14 289.14 252C288.88 251.81 288.71 251.52 288.65 251.21C288.6 250.89 288.67 250.57 288.85 250.3C307.95 223.22 307.95 223.22 306.88 214.22C306.06 206.96 302.27 200.57 298.79 195.1C295.3 189.63 289.79 183.75 286.21 184.29C283.8 184.67 282.3 188.16 281.55 191.01L280.85 193.63C279.01 200.5 276.88 208.29 278.67 214.8C280 218.87 281.9 222.72 284.33 226.25C285.99 228.81 287.48 231.49 288.78 234.26C288.9 234.55 288.91 234.89 288.79 235.19C288.68 235.49 288.44 235.73 288.15 235.86C287.85 235.98 287.52 235.99 287.22 235.87C286.92 235.75 286.68 235.52 286.55 235.23C285.29 232.56 283.85 229.98 282.25 227.51C279.7 223.78 277.71 219.71 276.33 215.41C274.39 208.27 276.59 200.14 278.53 192.97L279.23 190.38C280.56 185.2 282.78 182.35 285.83 181.87C292.14 180.87 298.91 190.72 300.84 193.77C304.47 199.48 308.38 206.21 309.3 213.91C310.46 223.83 310.46 223.83 290.83 251.68C290.72 251.85 290.58 251.98 290.4 252.07C290.23 252.17 290.04 252.22 289.84 252.21Z" fill="#3C4242" fill-opacity="1.000000" fill-rule="nonzero"/>
	<path id="Vector" d="M52.39 288.22C52.39 288.22 139.18 368.52 163.99 359.35C188.79 350.18 217.68 311.89 234.7 285.2C251.72 258.51 273.76 221.63 277.01 205.19C280.24 188.76 275.17 176.49 269.03 179.57C262.89 182.64 239.9 205.17 239.9 205.17C239.9 205.17 247.66 183.15 244.03 183.05C240.4 182.95 229.72 192.73 226.16 224.19L152.43 299.21L91.99 240.21L52.39 288.22Z" fill="#FFFFFF" fill-opacity="1.000000" fill-rule="nonzero"/>
	<path id="Vector" d="M159.59 361.24C129.92 361.24 54.93 292.19 51.57 289.1C51.46 288.98 51.37 288.85 51.31 288.7C51.25 288.55 51.21 288.4 51.21 288.24C51.21 288.08 51.25 287.92 51.31 287.77C51.37 287.62 51.46 287.49 51.57 287.38C51.8 287.15 52.11 287.03 52.43 287.03C52.75 287.03 53.06 287.15 53.29 287.38C53.51 287.6 75.24 307.66 99.7 326.32C131.81 350.81 153.9 361.86 163.65 358.26C191.76 347.88 224.42 299.26 233.75 284.59C251.23 257.18 272.72 221.09 275.89 205.02C278.31 193.29 276.09 183.58 272.68 180.99C272.27 180.64 271.76 180.41 271.22 180.36C270.67 180.3 270.13 180.41 269.65 180.68C263.73 183.63 241.03 205.9 240.79 206.11C240.6 206.31 240.35 206.43 240.08 206.45C239.81 206.48 239.54 206.41 239.31 206.26C239.08 206.12 238.9 205.9 238.81 205.65C238.72 205.39 238.72 205.11 238.81 204.86C241.78 196.41 244.39 186.44 243.79 184.36C241.37 184.87 231 192.71 227.42 224.26C227.38 224.53 227.26 224.78 227.08 224.99L153.35 300.01C153.24 300.12 153.11 300.21 152.96 300.27C152.82 300.33 152.66 300.37 152.5 300.37C152.35 300.37 152.19 300.33 152.04 300.27C151.9 300.21 151.77 300.12 151.66 300.01L91.22 241.01C90.99 240.79 90.86 240.48 90.85 240.16C90.85 239.83 90.97 239.52 91.19 239.29C91.42 239.06 91.73 238.93 92.05 238.92C92.37 238.92 92.68 239.04 92.91 239.27L152.6 297.35L225.12 223.47C228.77 192.17 239.63 181.79 244.1 181.79C244.42 181.79 244.73 181.87 245 182.02C245.28 182.18 245.51 182.4 245.67 182.66C247.29 185.08 244.83 194.13 242.68 200.79C249.44 194.28 263.76 180.8 268.57 178.4C269.45 177.94 270.45 177.74 271.44 177.83C272.43 177.93 273.37 178.31 274.15 178.94C278.84 182.54 280.58 193.65 278.26 205.36C275.02 221.82 253.39 258.17 235.79 285.78C223.7 304.78 192.51 350.06 164.47 360.41C162.9 360.98 161.25 361.26 159.59 361.24Z" fill="#3C4242" fill-opacity="1.000000" fill-rule="nonzero"/>
	<path id="Vector" d="M127.75 80.83C127.53 80.83 127.31 80.78 127.12 80.66C126.98 80.58 126.86 80.47 126.77 80.35C126.67 80.22 126.6 80.08 126.57 79.92C126.53 79.77 126.52 79.61 126.55 79.46C126.57 79.3 126.62 79.15 126.71 79.01C127.05 78.47 127.49 78 128.02 77.63C128.54 77.26 129.13 77 129.75 76.86C130.38 76.72 131.03 76.7 131.66 76.82C132.29 76.93 132.89 77.17 133.43 77.51C133.67 77.68 133.85 77.93 133.92 78.22C133.99 78.51 133.95 78.81 133.82 79.07C133.68 79.34 133.45 79.54 133.17 79.64C132.9 79.75 132.59 79.75 132.32 79.64C129.9 78.41 128.88 80.06 128.79 80.25C128.68 80.43 128.53 80.57 128.34 80.68C128.16 80.78 127.96 80.83 127.75 80.83Z" fill="#3C4242" fill-opacity="1.000000" fill-rule="nonzero"/>
	<path id="Vector" d="M96.83 84.22L67.79 87.75L96.83 84.22Z" fill="#FFFFFF" fill-opacity="1.000000" fill-rule="nonzero"/>
	<path id="Vector" d="M67.79 88.96C67.47 88.98 67.16 88.87 66.92 88.66C66.68 88.44 66.53 88.14 66.51 87.82C66.49 87.5 66.6 87.19 66.81 86.95C67.03 86.71 67.33 86.56 67.65 86.54L96.66 82.98C96.82 82.96 96.98 82.98 97.13 83.02C97.28 83.06 97.42 83.13 97.55 83.23C97.67 83.33 97.78 83.46 97.85 83.6C97.93 83.74 97.97 83.89 97.99 84.05C98.03 84.37 97.94 84.69 97.75 84.94C97.55 85.2 97.27 85.36 96.95 85.4L67.94 88.94L67.79 88.96Z" fill="#3C4242" fill-opacity="1.000000" fill-rule="nonzero"/>
	<path id="Vector" d="M69.95 98.3C69.95 98.3 60.03 64.79 73.31 41.96C84.3 23.04 113.24 9.95 134.54 9.25C129.42 5 123.18 2.3 116.58 1.48C109.97 0.66 103.27 1.75 97.26 4.62C75.17 14.3 63.42 25.22 59.04 45.06C52.8 73.76 69.95 98.3 69.95 98.3Z" fill="#3C4242" fill-opacity="1.000000" fill-rule="nonzero"/>
	<path id="Vector" d="M69.94 99.46C69.75 99.46 69.56 99.41 69.39 99.33C69.22 99.24 69.07 99.11 68.95 98.96C68.78 98.69 51.57 73.64 57.88 44.77C62.09 25.41 73.01 13.84 96.8 3.46C103.05 0.52 110 -0.58 116.84 0.28C123.69 1.13 130.15 3.92 135.48 8.3C135.65 8.47 135.77 8.68 135.82 8.91C135.87 9.14 135.86 9.39 135.77 9.61C135.69 9.83 135.55 10.03 135.35 10.17C135.16 10.31 134.92 10.38 134.68 10.38C114.18 11.13 85.39 23.6 74.34 42.59C61.48 64.69 71.01 97.62 71.1 97.96C71.18 98.24 71.17 98.53 71.05 98.79C70.94 99.05 70.73 99.27 70.48 99.39C70.3 99.45 70.12 99.47 69.94 99.46ZM112.66 2.42C107.52 2.46 102.45 3.57 97.77 5.69C74.78 15.76 64.26 26.86 60.23 45.33C56.19 63.79 62.38 81.27 66.92 90.49C64.79 78.99 62.76 57.69 72.26 41.36C83.14 22.65 110.56 10.04 131.3 8.23C125.8 4.48 119.31 2.48 112.66 2.47L112.66 2.42Z" fill="#3C4242" fill-opacity="1.000000" fill-rule="nonzero"/>
	<path id="Vector" d="M85.76 92.4C85.76 92.4 71.69 65.58 58.95 83.83C46.21 102.08 67.62 119.99 79.81 117.57L85.76 92.4Z" fill="#FFFFFF" fill-opacity="1.000000" fill-rule="nonzero"/>
	<path id="Vector" d="M77.41 119.02C70.43 119.02 62.11 114.18 57.45 106.92C54.99 103.41 53.72 99.2 53.81 94.92C53.9 90.63 55.35 86.48 57.95 83.08C61.31 78.24 65.21 75.82 69.29 76.18C78.96 76.79 86.5 91.14 86.84 91.74C86.99 92.03 87.01 92.37 86.91 92.68C86.81 92.98 86.6 93.24 86.31 93.39C86.03 93.53 85.7 93.56 85.4 93.47C85.09 93.37 84.84 93.16 84.69 92.88C84.69 92.74 77.44 79.11 69.15 78.6C65.91 78.39 62.79 80.37 59.94 84.46C57.63 87.48 56.35 91.16 56.26 94.96C56.17 98.76 57.29 102.49 59.45 105.61C64.14 112.87 73.16 117.57 79.57 116.31C79.88 116.25 80.21 116.32 80.48 116.5C80.74 116.68 80.93 116.96 80.99 117.28C81.05 117.59 80.98 117.91 80.8 118.18C80.62 118.44 80.34 118.62 80.03 118.68C79.17 118.88 78.29 118.99 77.41 119.02Z" fill="#3C4242" fill-opacity="1.000000" fill-rule="nonzero"/>
	<path id="Vector" d="M86 235.95C85.83 235.95 85.66 235.92 85.51 235.85C85.36 235.78 85.22 235.69 85.1 235.57C84.81 235.23 55.15 203.04 34.79 195.25C34.63 195.21 34.47 195.13 34.34 195.02C34.21 194.92 34.1 194.79 34.02 194.64C33.94 194.48 33.89 194.32 33.88 194.15C33.87 193.98 33.9 193.81 33.96 193.65C34.02 193.49 34.11 193.34 34.23 193.22C34.35 193.1 34.5 193.01 34.65 192.95C34.81 192.88 34.98 192.86 35.15 192.87C35.32 192.88 35.49 192.92 35.64 193C56.55 201.1 85.66 232.56 86.89 233.92C87.11 234.15 87.24 234.46 87.24 234.78C87.24 235.1 87.11 235.41 86.89 235.64C86.77 235.75 86.63 235.83 86.48 235.89C86.32 235.94 86.16 235.96 86 235.95Z" fill="#3C4242" fill-opacity="1.000000" fill-rule="nonzero"/>
</svg>
