<svg width="200.585938" height="125.404449" viewBox="0 0 200.586 125.404" fill="none" xmlns="http://www.w3.org/2000/svg" xmlns:xlink="http://www.w3.org/1999/xlink">
	<desc>
			Created with Pixso.
	</desc>
	<defs/>
	<path id="Vector" d="M99.06 125.4C86.67 125.4 74.56 121.72 64.26 114.83C53.96 107.94 45.93 98.15 41.19 86.69C36.45 75.24 35.21 62.63 37.63 50.46C40.05 38.3 46.01 27.13 54.77 18.36C63.53 9.59 74.69 3.62 86.84 1.2C98.99 -1.22 111.59 0.02 123.03 4.77C134.48 9.51 144.26 17.55 151.14 27.86C158.03 38.17 161.7 50.3 161.7 62.7C161.68 79.32 155.08 95.26 143.33 107.01C131.59 118.77 115.67 125.38 99.06 125.4ZM99.06 2.44C87.15 2.44 75.51 5.98 65.6 12.6C55.7 19.23 47.98 28.64 43.42 39.66C38.87 50.67 37.68 62.8 40 74.49C42.33 86.19 48.07 96.93 56.49 105.36C64.91 113.79 75.65 119.53 87.33 121.85C99.01 124.17 111.12 122.97 122.13 118.41C133.13 113.84 142.53 106.11 149.15 96.19C155.76 86.28 159.29 74.62 159.28 62.7C159.26 46.72 152.9 31.4 141.62 20.11C130.33 8.81 115.02 2.46 99.06 2.44Z" fill="#D1D3D4" fill-opacity="1.000000" fill-rule="nonzero"/>
	<path id="Vector" d="M143.06 46.89C142.63 47.59 142.15 48.24 141.61 48.85L90.07 100.38C89.8 100.78 89.45 101.1 89.02 101.33C88.6 101.56 88.13 101.68 87.65 101.68C87.17 101.68 86.7 101.56 86.28 101.33C85.86 101.1 85.5 100.78 85.23 100.38C75.56 90.41 65.89 80.42 56.22 70.42C55.86 70.14 55.57 69.78 55.37 69.37C55.17 68.96 55.08 68.51 55.1 68.05C55.11 67.59 55.24 67.15 55.46 66.75C55.69 66.35 56.01 66.02 56.39 65.77L63.65 59.21C63.91 58.88 64.24 58.62 64.61 58.44C64.99 58.26 65.4 58.16 65.82 58.16C66.24 58.16 66.65 58.26 67.03 58.44C67.41 58.62 67.74 58.88 68 59.21L85.14 76.68C86.93 78.5 88.26 78.52 89.97 76.68L130.01 36.78C130.27 36.37 130.63 36.04 131.05 35.81C131.47 35.58 131.94 35.46 132.42 35.46C132.9 35.46 133.38 35.58 133.8 35.81C134.22 36.04 134.58 36.37 134.84 36.78C137.11 39.05 139.39 41.33 141.61 43.63C142.12 44.23 142.59 44.87 143.01 45.54L143.06 46.89Z" fill="#8A33FD" fill-opacity="1.000000" fill-rule="nonzero"/>
	<path id="Vector" d="M27.79 27.37C27.54 27.36 27.3 27.29 27.09 27.15L0.5 8.76C0.24 8.57 0.07 8.28 0.01 7.97C-0.04 7.65 0.03 7.33 0.21 7.06C0.3 6.93 0.41 6.82 0.55 6.74C0.68 6.65 0.83 6.59 0.98 6.57C1.14 6.54 1.3 6.54 1.45 6.58C1.61 6.61 1.75 6.68 1.88 6.77L28.47 25.16C28.6 25.25 28.72 25.36 28.8 25.5C28.89 25.63 28.95 25.78 28.98 25.93C29.01 26.09 29.01 26.25 28.97 26.4C28.94 26.56 28.88 26.7 28.79 26.83C28.68 27 28.53 27.13 28.36 27.22C28.18 27.31 27.99 27.36 27.79 27.37Z" fill="#D1D3D4" fill-opacity="1.000000" fill-rule="nonzero"/>
	<path id="Vector" d="M1.25 118.87C1.06 118.87 0.86 118.83 0.69 118.74C0.52 118.65 0.37 118.52 0.26 118.36C0.08 118.09 0.01 117.77 0.06 117.45C0.12 117.14 0.29 116.85 0.55 116.66L27.14 98.27C27.27 98.18 27.42 98.11 27.58 98.08C27.74 98.05 27.9 98.05 28.05 98.07C28.21 98.1 28.36 98.16 28.5 98.25C28.63 98.34 28.75 98.45 28.83 98.59C28.93 98.72 28.99 98.86 29.02 99.02C29.06 99.17 29.06 99.33 29.03 99.49C29 99.64 28.94 99.79 28.85 99.92C28.76 100.06 28.65 100.17 28.52 100.26L1.93 118.65C1.73 118.79 1.49 118.87 1.25 118.87Z" fill="#D1D3D4" fill-opacity="1.000000" fill-rule="nonzero"/>
	<path id="Vector" d="M199.32 63.91L175.6 63.91C175.28 63.91 174.97 63.78 174.75 63.55C174.52 63.33 174.39 63.02 174.39 62.7C174.39 62.38 174.52 62.07 174.75 61.84C174.97 61.61 175.28 61.49 175.6 61.49L199.32 61.49C199.64 61.49 199.94 61.61 200.17 61.84C200.4 62.07 200.52 62.38 200.52 62.7C200.52 63.02 200.4 63.33 200.17 63.55C199.94 63.78 199.64 63.91 199.32 63.91Z" fill="#D1D3D4" fill-opacity="1.000000" fill-rule="nonzero"/>
	<path id="Vector" d="M25.01 63.91L1.3 63.91C0.98 63.91 0.67 63.78 0.44 63.55C0.22 63.33 0.09 63.02 0.09 62.7C0.09 62.38 0.22 62.07 0.44 61.84C0.67 61.61 0.98 61.49 1.3 61.49L25.01 61.49C25.33 61.49 25.64 61.61 25.87 61.84C26.1 62.07 26.22 62.38 26.22 62.7C26.22 63.02 26.1 63.33 25.87 63.55C25.64 63.78 25.33 63.91 25.01 63.91Z" fill="#D1D3D4" fill-opacity="1.000000" fill-rule="nonzero"/>
	<path id="Vector" d="M172.77 27.37C172.58 27.36 172.39 27.31 172.21 27.22C172.04 27.13 171.89 27 171.78 26.83C171.69 26.7 171.63 26.56 171.59 26.4C171.56 26.25 171.56 26.09 171.59 25.93C171.62 25.78 171.68 25.63 171.76 25.5C171.85 25.36 171.96 25.25 172.1 25.16L198.69 6.77C198.82 6.68 198.96 6.61 199.12 6.58C199.27 6.54 199.43 6.54 199.58 6.57C199.74 6.59 199.89 6.65 200.02 6.74C200.15 6.82 200.27 6.93 200.36 7.06C200.45 7.19 200.52 7.34 200.55 7.49C200.59 7.65 200.59 7.81 200.56 7.97C200.54 8.13 200.48 8.28 200.39 8.41C200.31 8.55 200.2 8.66 200.07 8.76L173.47 27.15C173.27 27.29 173.02 27.36 172.77 27.37Z" fill="#D1D3D4" fill-opacity="1.000000" fill-rule="nonzero"/>
	<path id="Vector" d="M199.32 118.87C199.08 118.86 198.84 118.79 198.64 118.65L172.05 100.26C171.92 100.17 171.8 100.06 171.72 99.92C171.63 99.79 171.57 99.64 171.54 99.49C171.51 99.33 171.51 99.17 171.55 99.02C171.58 98.86 171.64 98.72 171.73 98.59C171.82 98.45 171.94 98.34 172.07 98.25C172.21 98.16 172.36 98.1 172.52 98.07C172.67 98.05 172.83 98.05 172.99 98.08C173.15 98.12 173.3 98.18 173.43 98.27L200.02 116.66C200.15 116.76 200.26 116.87 200.35 117.01C200.43 117.14 200.49 117.29 200.52 117.45C200.54 117.61 200.54 117.77 200.5 117.92C200.47 118.08 200.4 118.23 200.31 118.36C200.2 118.52 200.05 118.65 199.88 118.74C199.71 118.83 199.51 118.87 199.32 118.87Z" fill="#D1D3D4" fill-opacity="1.000000" fill-rule="nonzero"/>
</svg>
