<svg width="20" height="16" viewBox="0 0 20 16" fill="none" xmlns="http://www.w3.org/2000/svg">
<path d="M1.66696 9.07403C1.35385 8.39284 1.35385 7.60699 1.66696 6.92581C3.1163 3.77264 6.30262 1.58325 10.0003 1.58325C13.698 1.58325 16.8843 3.77265 18.3337 6.92581C18.6468 7.607 18.6468 8.39285 18.3337 9.07403C16.8843 12.2272 13.698 14.4166 10.0003 14.4166C6.30262 14.4166 3.1163 12.2272 1.66696 9.07403Z" stroke="#807D7E" stroke-width="1.5"/>
<path d="M12.7503 7.99992C12.7503 9.5187 11.5191 10.7499 10.0003 10.7499C8.48152 10.7499 7.25031 9.5187 7.25031 7.99992C7.25031 6.48114 8.48152 5.24992 10.0003 5.24992C11.5191 5.24992 12.7503 6.48114 12.7503 7.99992Z" stroke="#807D7E" stroke-width="1.5"/>
</svg>
