<svg width="23.869629" height="44.069016" viewBox="0 0 23.8696 44.069" fill="none" xmlns="http://www.w3.org/2000/svg" xmlns:xlink="http://www.w3.org/1999/xlink"><path id="Vector" d="M23.36 43.57C23.21 43.72 23.02 43.85 22.81 43.93C22.6 44.02 22.38 44.06 22.16 44.06C21.93 44.06 21.71 44.02 21.5 43.93C21.3 43.85 21.11 43.72 20.95 43.57L0.5 23.23C0.34 23.07 0.21 22.88 0.13 22.68C0.04 22.47 0 22.25 0 22.03C0 21.81 0.04 21.59 0.13 21.38C0.21 21.17 0.34 20.99 0.5 20.83L20.95 0.49C21.27 0.17 21.7 0 22.16 0C22.61 0 23.04 0.17 23.36 0.49C23.68 0.81 23.86 1.24 23.86 1.69C23.86 2.14 23.68 2.57 23.36 2.89L4.11 22.03L23.36 41.17C23.52 41.32 23.65 41.51 23.73 41.72C23.82 41.92 23.86 42.14 23.86 42.37C23.86 42.59 23.82 42.81 23.73 43.02C23.65 43.22 23.52 43.41 23.36 43.57Z" fill="#FFFFFF" fill-opacity="1.000000" fill-rule="evenodd"/></svg>
