<svg width="411.990234" height="462.098999" viewBox="0 0 411.99 462.099" fill="none" xmlns="http://www.w3.org/2000/svg" xmlns:xlink="http://www.w3.org/1999/xlink">
	<desc>
			Created with Pixso.
	</desc>
	<defs/>
	<path id="Vector" d="M395.57 462.09L55.11 462.09C50.76 462.09 46.59 460.35 43.51 457.27C40.44 454.19 38.71 450.02 38.7 445.66L38.7 155.58L1.64 168.86C1.39 168.95 1.12 168.96 0.86 168.88C0.61 168.8 0.39 168.64 0.24 168.43C0.08 168.22 0 167.96 0 167.7C0 167.44 0.08 167.18 0.24 166.98L38.65 119.86L38.65 16.4C38.66 12.05 40.39 7.88 43.47 4.8C46.54 1.72 50.72 0 55.07 0L395.57 0C399.92 0 404.09 1.72 407.17 4.8C410.25 7.88 411.98 12.05 411.99 16.4L411.99 445.66C411.98 450.02 410.25 454.19 407.17 457.27C404.09 460.35 399.92 462.09 395.57 462.09ZM39.91 152.67C40.16 152.67 40.4 152.75 40.61 152.89C40.77 153 40.9 153.15 40.99 153.32C41.08 153.5 41.12 153.69 41.12 153.88L41.12 445.66C41.12 449.38 42.6 452.94 45.22 455.56C47.85 458.19 51.4 459.67 55.11 459.67L395.57 459.67C399.28 459.67 402.84 458.19 405.46 455.56C408.09 452.94 409.56 449.38 409.57 445.66L409.57 16.4C409.56 12.69 408.08 9.13 405.46 6.51C402.84 3.89 399.28 2.41 395.57 2.42L55.11 2.42C51.41 2.41 47.85 3.89 45.22 6.51C42.6 9.13 41.12 12.69 41.12 16.4L41.12 120.2C41.11 120.47 41.02 120.73 40.85 120.95L4.9 165.04L39.5 152.75C39.63 152.7 39.77 152.67 39.91 152.67Z" fill="#3C4242" fill-opacity="1.000000" fill-rule="nonzero"/>
</svg>
